PathFileType	4	(x/y/z)	A01_FAST_T0024.trc
DataRate	CameraRate	NumFrames	NumMarkers	Units	OrigDataRate	OrigDataStartFrame	OrigNumFrames
240	240	9	48	mm	240	182	290
Frame#	Time	TOP_HEAD			R_AC			L_AC			R_ASIS			L_ASIS			R_PSIS			L_PSIS			SACRAL			L_IC			R_IC			L_GT			R_GT			R_LAT_KNEE			R_MED_KNEE			L_MED_KNEE			L_LAT_KNEE			R_TOE			L_TOE			R_1ST_MET			L_1ST_MET			L_5TH_MET			R_5TH_MET			R_LAT_ANK			R_MED_ANK			L_MED_ANK			L_LAT_ANK			L_HEEL_SUP			R_HEEL_SUP			L_HEEL_LAT			R_HEEL_LAT			L_HEEL_MED			R_HEEL_MED			R_LL_PROX_POST			R_LL_PROX_ANT			R_LL_DIST_ANT			R_LL_DIST_POST			R_THIGH_PROX_POST			R_THIGH_PROX_ANT			R_THIGH_DIST_ANT			R_THIGH_DIST_POST			L_PROS_PROX_ANT			L_PROS_PROX_POST			L_PROS_DIST_POST			L_PROS_DIST_ANT			L_THIGH_PROX_ANT			L_THIGH_PROX_POST			L_THIGH_DIST_POST			L_THIGH_DIST_ANT			
		X1	Y1	Z1	X2	Y2	Z2	X3	Y3	Z3	X4	Y4	Z4	X5	Y5	Z5	X6	Y6	Z6	X7	Y7	Z7	X8	Y8	Z8	X9	Y9	Z9	X10	Y10	Z10	X11	Y11	Z11	X12	Y12	Z12	X13	Y13	Z13	X14	Y14	Z14	X15	Y15	Z15	X16	Y16	Z16	X17	Y17	Z17	X18	Y18	Z18	X19	Y19	Z19	X20	Y20	Z20	X21	Y21	Z21	X22	Y22	Z22	X23	Y23	Z23	X24	Y24	Z24	X25	Y25	Z25	X26	Y26	Z26	X27	Y27	Z27	X28	Y28	Z28	X29	Y29	Z29	X30	Y30	Z30	X31	Y31	Z31	X32	Y32	Z32	X33	Y33	Z33	X34	Y34	Z34	X35	Y35	Z35	X36	Y36	Z36	X37	Y37	Z37	X38	Y38	Z38	X39	Y39	Z39	X40	Y40	Z40	X41	Y41	Z41	X42	Y42	Z42	X43	Y43	Z43	X44	Y44	Z44	X45	Y45	Z45	X46	Y46	Z46	X47	Y47	Z47	X48	Y48	Z48	

182	0.75678	572.34	1701.7	296.23	346.37	1506.4	559.7	320.02	1519.7	103.04	315.57	1066	527.91	305.15	978.78	182.6	94.89	1054.7	413.22	101.61	1052.5	279.95	82.624	1023.7	346.95	287.73	1107.4	140.96	286.49	1146.2	547.57	234.93	901.6	144.3	270.85	954.83	575.62	408.58	564.7	502.84	435.04	576.32	373.61	244.29	479.19	339.4	220.79	516.93	188.09	660.68	76.452	391.03	-100.6	82.195	234.23	577.09	56.479	345.53	-160.35	129.57	300.34	-193.43	165.51	180.41	551.64	45.058	480.87	431.36	103.16	456.99	434.87	111.44	354.74	-153.53	283.57	302.53	-184.03	310.23	239.01	-264.64	349.93	295.36	331.65	67.252	400.14	-288.93	333.22	263.66	340.77	43.958	434.51	-279.13	316.48	325.22	341.16	41.717	372.46	341.56	378.46	502.02	412.86	376.81	517.37	423.59	304.45	496.96	368.21	300.51	487.99	284.37	800.51	554.99	340.47	841.65	561.65	375.37	758.3	548.65	319.61	719.65	539.94	178.04	432.53	196.9	146.65	478.87	193.09	91.591	448.8	205.08	127.61	407.98	205.78	287.42	754.92	175.92	218.35	764.95	159.38	224.89	689.05	168.69	287.98	681.1	183
183	0.76096	579.04	1702.5	296.29	353.15	1507.5	559.71	326.41	1520.3	103.04	321.82	1066.4	529.08	312.18	980.08	183.36	101.35	1055.3	413.74	108.16	1053.1	280.51	89.243	1024.2	347.4	294.25	1108.2	141.29	292.87	1147.4	548.03	242.61	902.75	144.77	276.9	955.01	576.28	413.42	564.68	503.17	440.25	576.35	373.89	257.49	479.1	339.16	233.38	518.56	188.36	660.89	75.861	390.99	-91.11	85.477	231.46	577.23	56.338	345.42	-149.99	132.83	298.51	-183.58	170.49	179.22	551.68	45.047	480.94	431.75	103.33	456.79	435.21	111.45	354.52	-142.06	286.8	302.5	-172.72	314.26	239.28	-252.27	354.44	296.64	331.85	67.542	400.12	-276.95	338.26	264.95	340.9	44.225	434.49	-266.89	320.8	326.26	341.35	42.005	372.48	344.71	379.2	502.03	416.03	376.89	517.31	426.1	304.45	496.77	370.67	301.01	487.85	289.93	800.8	555.28	346.16	841.63	562.35	380.75	758.13	549.35	324.84	719.8	540.28	190.08	434.35	196.58	158.99	481	193.37	103.78	451.19	205.35	139.5	410.09	205.43	296.9	756.42	176.31	227.73	765.68	159.68	235.15	689.87	168.87	298.29	682.59	183.28
184	0.76514	585.73	1703.3	296.32	359.89	1508.7	559.7	332.76	1520.9	103	328.08	1066.8	530.25	319.15	981.45	184.07	107.82	1055.9	414.29	114.68	1053.7	281.1	95.841	1024.8	347.88	300.7	1109.1	141.62	299.26	1148.7	548.48	250.2	903.99	145.22	282.95	955.18	576.92	418.14	564.66	503.46	445.26	576.35	374.11	270.61	479.19	338.93	245.91	520.34	188.62	661.09	75.34	390.95	-81.144	88.745	228.65	577.36	56.241	345.3	-139.22	135.91	296.64	-173.37	175.22	177.98	551.71	45.073	480.99	432.14	103.5	456.58	435.53	111.47	354.29	-130.41	289.79	302.4	-161.22	318.02	239.5	-239.86	358.51	297.84	332.04	67.826	400.1	-264.88	342.81	266.17	341.01	44.489	434.47	-254.55	324.66	327.23	341.53	42.288	372.49	347.74	379.91	502	419.08	376.97	517.22	428.5	304.45	496.57	373.04	301.5	487.68	295.43	801.11	555.54	351.81	841.62	562.99	386.06	757.96	550	329.98	719.96	540.57	202.13	436.3	196.25	171.31	483.21	193.64	115.98	453.6	205.6	151.44	412.27	205.08	306.32	758.02	176.7	237.08	766.53	159.97	245.36	690.81	169.05	308.55	684.2	183.56
185	0.76932	592.42	1704.2	296.33	366.59	1509.9	559.67	339.08	1521.6	102.93	334.37	1067.2	531.39	326.06	982.88	184.74	114.28	1056.5	414.86	121.18	1054.5	281.72	102.42	1025.5	348.38	307.08	1110	141.94	305.67	1150	548.91	257.7	905.31	145.64	289	955.35	577.53	422.74	564.63	503.71	450.08	576.31	374.29	283.65	479.47	338.7	258.37	522.27	188.88	661.28	74.874	390.89	-70.722	91.952	225.82	577.47	56.176	345.18	-128.06	138.79	294.74	-162.81	179.66	176.7	551.73	45.127	481.03	432.51	103.68	456.37	435.82	111.5	354.06	-118.58	292.54	302.23	-149.57	321.51	239.67	-227.41	362.13	298.96	332.23	68.11	400.08	-252.75	346.88	267.31	341.13	44.755	434.44	-242.12	328.06	328.11	341.71	42.568	372.51	350.66	380.6	501.94	422	377.04	517.12	430.8	304.45	496.36	375.32	301.98	487.49	300.87	801.45	555.77	357.42	841.62	563.59	391.31	757.8	550.6	335.04	720.14	540.83	214.22	438.35	195.92	183.6	485.49	193.9	128.19	456.03	205.82	163.43	414.5	204.72	315.68	759.74	177.1	246.38	767.5	160.25	255.53	691.88	169.24	318.75	685.93	183.85
186	0.7735	599.09	1705.1	296.31	373.25	1511.3	559.62	345.37	1522.3	102.83	340.68	1067.6	532.5	332.9	984.36	185.37	120.74	1057.2	415.45	127.67	1055.2	282.35	108.98	1026.2	348.9	313.4	1110.9	142.25	312.09	1151.4	549.33	265.11	906.71	146.03	295.06	955.53	578.11	427.23	564.59	503.93	454.73	576.24	374.44	296.61	479.93	338.47	270.77	524.31	189.13	661.46	74.451	390.83	-59.863	95.05	223.01	577.57	56.135	345.07	-116.55	141.45	292.82	-151.9	183.78	175.4	551.75	45.199	481.04	432.89	103.86	456.18	436.1	111.55	353.83	-106.6	295.03	301.99	-137.76	324.69	239.77	-214.94	365.31	299.97	332.42	68.396	400.05	-240.54	350.47	268.35	341.24	45.024	434.42	-229.61	331.02	328.9	341.88	42.848	372.51	353.48	381.27	501.86	424.81	377.11	517.02	433.01	304.46	496.16	377.51	302.45	487.27	306.24	801.82	555.99	362.99	841.64	564.13	396.5	757.66	551.15	340.03	720.35	541.07	226.32	440.49	195.59	195.87	487.81	194.15	140.4	458.44	206.02	175.47	416.77	204.36	325	761.57	177.51	255.65	768.57	160.54	265.65	693.06	169.44	328.91	687.77	184.14
187	0.77768	605.75	1706	296.26	379.87	1512.7	559.57	351.63	1523	102.7	347.02	1067.9	533.57	339.67	985.9	185.94	127.21	1058	416.06	134.13	1056.1	282.99	115.52	1026.9	349.44	319.67	1111.8	142.57	318.54	1152.8	549.74	272.44	908.18	146.4	301.12	955.76	578.65	431.59	564.56	504.11	459.23	576.14	374.57	309.46	480.59	338.25	283.1	526.47	189.37	661.64	74.062	390.76	-48.583	98.001	220.24	577.67	56.112	344.96	-104.7	143.86	290.91	-140.66	187.56	174.07	551.77	45.282	481.05	433.26	104.05	455.98	436.37	111.61	353.6	-94.475	297.26	301.65	-125.8	327.56	239.81	-202.43	368.05	300.87	332.6	68.688	400.02	-228.26	353.57	269.27	341.35	45.298	434.38	-217.04	333.52	329.57	342.04	43.133	372.51	356.21	381.93	501.76	427.52	377.18	516.92	435.14	304.47	495.95	379.62	302.91	487.06	311.56	802.22	556.18	368.53	841.69	564.62	401.63	757.54	551.65	344.94	720.59	541.27	238.44	442.7	195.26	208.1	490.16	194.37	152.62	460.83	206.19	187.55	419.05	204	334.28	763.49	177.91	264.9	769.74	160.81	275.74	694.35	169.63	339.03	689.71	184.43
188	0.78186	612.39	1707	296.19	386.46	1514.2	559.5	357.88	1523.8	102.54	353.38	1068.3	534.59	346.38	987.48	186.47	133.68	1058.8	416.68	140.58	1057	283.64	122.05	1027.8	349.98	325.88	1112.8	142.89	325.01	1154.2	550.13	279.69	909.72	146.74	307.19	956.02	579.15	435.84	564.54	504.26	463.59	576.01	374.67	322.21	481.44	338.03	295.35	528.71	189.59	661.82	73.699	390.7	-36.898	100.77	217.55	577.76	56.1	344.85	-92.537	146.02	289.02	-129.1	190.97	172.75	551.79	45.37	481.04	433.64	104.24	455.8	436.64	111.69	353.38	-82.209	299.23	301.24	-113.7	330.1	239.77	-189.9	370.36	301.63	332.78	68.987	399.99	-215.92	356.19	270.04	341.46	45.58	434.35	-204.41	335.6	330.11	342.2	43.424	372.51	358.86	382.57	501.66	430.15	377.26	516.81	437.2	304.5	495.75	381.67	303.38	486.85	316.82	802.68	556.36	374.05	841.78	565.06	406.7	757.45	552.1	349.79	720.87	541.46	250.59	444.96	194.93	220.31	492.52	194.57	164.84	463.18	206.32	199.68	421.33	203.64	343.52	765.51	178.32	274.13	771	161.07	285.8	695.74	169.83	349.12	691.76	184.72
189	0.78604	619.01	1708	296.08	393.01	1515.8	559.42	364.1	1524.6	102.36	359.77	1068.8	535.54	353.03	989.11	186.95	140.14	1059.8	417.29	147	1058	284.29	128.55	1028.7	350.53	332.05	1113.8	143.22	331.5	1155.6	550.51	286.85	911.3	147.07	313.27	956.34	579.62	439.96	564.52	504.38	467.83	575.86	374.77	334.84	482.49	337.83	307.54	531.04	189.78	662	73.357	390.63	-24.821	103.32	214.96	577.85	56.095	344.75	-80.071	147.92	287.16	-117.21	193.99	171.42	551.82	45.459	481.03	434.01	104.45	455.63	436.9	111.78	353.17	-69.815	300.93	300.73	-101.47	332.32	239.65	-177.35	372.24	302.25	332.97	69.297	399.96	-203.51	358.34	270.66	341.57	45.872	434.31	-191.73	337.25	330.51	342.35	43.724	372.5	361.43	383.2	501.57	432.7	377.35	516.7	439.19	304.55	495.56	383.65	303.84	486.65	322.04	803.17	556.52	379.53	841.91	565.45	411.71	757.4	552.5	354.57	721.19	541.62	262.75	447.27	194.61	232.49	494.88	194.74	177.05	465.48	206.41	211.84	423.6	203.28	352.73	767.62	178.72	283.34	772.35	161.33	295.83	697.22	170.03	359.17	693.9	185.01
190	0.79022	625.61	1709	295.95	399.54	1517.4	559.34	370.31	1525.4	102.16	366.19	1069.3	536.43	359.63	990.77	187.38	146.61	1060.8	417.91	153.42	1059.1	284.93	135.04	1029.7	351.08	338.18	1114.8	143.55	338.01	1157.1	550.86	293.95	912.93	147.38	319.34	956.73	580.03	443.95	564.5	504.48	471.96	575.69	374.86	347.36	483.73	337.65	319.66	533.43	189.96	662.19	73.03	390.57	-12.366	105.63	212.49	577.94	56.094	344.65	-67.321	149.53	285.36	-105	196.61	170.1	551.84	45.546	481	434.4	104.65	455.48	437.16	111.88	352.98	-57.3	302.36	300.15	-89.122	334.2	239.44	-164.77	373.71	302.7	333.15	69.618	399.93	-191.04	360.03	271.1	341.68	46.174	434.28	-179	338.48	330.76	342.49	44.033	372.47	363.94	383.82	501.5	435.18	377.44	516.59	441.14	304.6	495.38	385.58	304.31	486.48	327.2	803.72	556.67	384.99	842.09	565.8	416.67	757.38	552.87	359.28	721.55	541.76	274.93	449.6	194.3	244.64	497.23	194.88	189.25	467.71	206.46	224.05	425.85	202.92	361.91	769.8	179.11	292.53	773.78	161.56	305.83	698.78	170.22	369.21	696.12	185.29
